<svg xmlns="http://www.w3.org/2000/svg" width="514" height="514" fill="none"><path stroke="#00ADB5" stroke-linecap="round" stroke-linejoin="round" stroke-opacity=".5" d="M149.686 414.091c-1.309.193-2.849.295-3.161 1.854-.241 1.208-.15 2.451.574 3.499 1.237 1.79 3.075 2.835 5.289 2.466 1.979-.329 4.698-2.123 4.698-4.351 0-1.256-.905-2.52-1.653-3.46-.802-1.007-1.495-2.067-2.505-2.891-1.362-1.111-2.463-1.22-3.688.09-.67.717-1.304 1.695-1.597 2.634-.145.463-.038.834-.038 1.298 0 .618-.115-.294 0-.6"/><path stroke="#00ADB5" stroke-linecap="round" stroke-linejoin="round" stroke-opacity=".5" d="M156.469 417.63c1.114.989 2.058 1.883 4.028 1.931 1.379.034 2.757-.31 4.049-.681.926-.265 3.892-1.67 1.488-1.783"/><path stroke="#00ADB5" stroke-linecap="round" stroke-linejoin="round" stroke-opacity=".5" d="M167.955 409.003c-1.47 1.623-3.498 4.804-2.736 7.242.268.857.657 1.434 1.16 2.167 1.014 1.474 2.584 1.014 4.009.629 1.032-.279 2.259-1.158 2.655-2.158.545-1.38-.592-3.538-1.542-4.488-1.061-1.061-1.901-2.352-3.083-3.281-.315-.247-.554-.515-.964-.424-.461.103-.651.544-.038.544M271.866 186.582c-1.309.194-2.849.296-3.16 1.855-.242 1.208-.15 2.451.574 3.499 1.237 1.79 3.075 2.835 5.288 2.466 1.98-.33 4.698-2.123 4.698-4.351 0-1.256-.904-2.52-1.653-3.46-.802-1.008-1.495-2.067-2.505-2.891-1.362-1.111-2.462-1.22-3.687.09-.67.717-1.304 1.695-1.598 2.634-.144.463-.038.834-.038 1.298 0 .618-.115-.294 0-.6"/><path stroke="#00ADB5" stroke-linecap="round" stroke-linejoin="round" stroke-opacity=".5" d="M278.65 190.122c1.114.989 2.058 1.883 4.027 1.931 1.379.034 2.758-.31 4.05-.681.925-.265 3.891-1.67 1.488-1.783"/><path stroke="#00ADB5" stroke-linecap="round" stroke-linejoin="round" stroke-opacity=".5" d="M290.135 181.495c-1.469 1.623-3.498 4.804-2.736 7.242.268.857.657 1.434 1.16 2.166 1.014 1.474 2.584 1.015 4.009.63 1.033-.279 2.26-1.158 2.655-2.158.546-1.381-.592-3.538-1.542-4.488-1.061-1.061-1.901-2.352-3.083-3.281-.315-.247-.553-.515-.964-.424-.461.103-.651.544-.038.544M159.125 139.395c7.547-3.595 13.647-9.54 19.782-15.146 4.821-4.406 9.877-8.759 15.198-12.561 1.05-.751 2.533-2.26 3.952-1.617 1.407.638 2.217 2.374 3.329 3.402 2.737 2.532 5.199 5.626 7.449 8.601 2.478 3.275-1.237 5.088-3.534 7.232-2.609 2.436-5.101 4.948-7.95 7.097-2.709 2.043-4.885 4.859-7.365 7.172-3.779 3.525-7.314 7.278-11.082 10.806-2.243 2.1-4.817 3.815-6.977 5.99-.757.762-1.457 1.77-2.33 2.404-.701.51-1.671-1.45-1.921-1.819-1.981-2.93-5.05-4.935-6.99-7.999-1.219-1.927-2.04-4.305-3.5-6.065-.697-.84-2.439-2.731-1.676-3.958.78-1.253 2.993-1.853 4.2-2.75.941-.7 2.085-1.563 3.156-2.05.778-.353 1.542-.98 2.238-1.462 1.832-1.27-.109-.727-1.348-.255"/><path stroke="#00ADB5" stroke-linecap="round" stroke-linejoin="round" stroke-opacity=".5" d="M160.278 145.148c4.594 2.844 8.715 6.96 12.302 11.019.09.103.963.711.83.936-.257.435-3.239-1.528-3.523-1.724M164.832 141.036c3.725 1.066 5.945 3.096 8.952 5.267 1.34.967 2.704 1.84 3.906 2.978.565.534.967 1.237 1.489 1.813.715.789-2.205-.916-2.549-1.113M170.244 137.848c2.607 2.353 5.227 4.673 7.915 6.93 1.021.858 2.181 1.645 3.063 2.656 1.566 1.793-.485-.534-1.181-1.191M173.896 135.606c1.934 1.175 3.953 2.314 5.59 3.899.672.651 1.229 1.417 1.947 2.019.884.742 1.659 1.608 2.549 2.329 1.268 1.027 1.459 1.327-.047.038M178.604 132.154c2.133 1.67 4.108 3.365 5.891 5.401.79.902 1.427 1.943 2.429 2.635.919.634 1.562.817.487-.213M183.137 128.637c1.878 1.411 3.729 2.699 5.23 4.517.686.832 1.228 1.788 1.995 2.555 1.558 1.559.487.773-.64-.285M187.317 124.987c2.637 2.522 4.845 5.476 7.486 7.967 1.779 1.678-.769-1.01-1.186-1.488M192.421 122.085c2.22-.906 4.522-1.986 5.714-4.201.329-.61.753-1.142.888-1.83.186-.945.149-.539-.551.072M195.994 125.133c1.76-1.633 3.727-3.417 5.016-5.489.643-1.034 1.868-2.296.155-.801M201.635 128.555a106.515 106.515 0 0 0 4.506-5.184c.476-.589 1.929-1.353.181-.886M200.36 127.674c1.678-1.438 3.575-3.112 4.905-4.927.355-.485.628-1.024.953-1.528.544-.843.578-.558-.247-.471"/><path stroke="#00ADB5" stroke-linecap="round" stroke-linejoin="round" stroke-opacity=".5" d="M164.808 148.053c8.36-3.396 10.423-12.613 17.235-17.825.829-.634 1.502-1.339 2.469-1.778.646-.293 1.444-.434 2.032-.809.359-.23 3.338-2.506 1.268-1.565"/><path stroke="#00ADB5" stroke-linecap="round" stroke-linejoin="round" stroke-opacity=".5" d="M160.915 145.588c.939-1.141 1.772-2.117 2.962-2.942.195-.136.496-.158.657-.339.318-.358.8-.882.922-1.343.483-1.819 2.841-1.483 4.094-2.395 1.191-.867 2.338-1.746 3.553-2.603 1.338-.944 1.957-1.772 3.032-2.982.987-1.112 1.946-2.236 2.991-3.288.855-.861 2.198-1.644 2.742-2.746.614-1.243 2.184-2.666 3.597-2.436.485.08 4.05 2.146 1.72.825M168.48 150.033c6.283-3.313 9.769-10.538 14.012-15.996 1.563-2.01 3.796-3.346 5.432-5.321.7-.845 2.245-1.742.448-1.727M170.723 152.08c5.693-3.5 9.337-10.011 13.479-15.17 1.884-2.348 3.703-4.744 5.61-7.073.87-1.061 2.386-1.724.44-.637M172.966 155.732c3.552-3.464 6.42-7.202 9.326-11.209 1.767-2.436 3.295-5.175 5.37-7.368 1.191-1.259 2.107-2.733 3.188-4.067.436-.538.736-1.164 1.184-1.697 1.008-1.201.305-.115-.397.537M173.801 157.25c1.768-1.732 4.358-3.398 5.537-5.645.428-.815 1.487-2.784 2.23-3.283.983-.66 1.451-2.063 2.165-2.945.745-.919 1.474-1.816 2.282-2.69.757-.82 1-2.259 1.937-2.964 1.045-.786 1.553-2.003 2.387-2.941.721-.812 2.094-1.653 2.989-2.274.496-.343.842-.812 1.404-1.067 1.14-.518.4-.253-.643-.292M192.278 122.734c1.462.385 3.265.65 4.598 1.447.86.514 1.609 1.03.043.094M193.796 120.293c2.086.545 3.561 1.156 5.261 2.265 1.113.725.934.524-.224-.174M196.327 117.83c1.791 1.007 3.529 2.152 5.381 3.029 1.089.516.518.48-.323.074M197.768 115.862c1.883.857 3.62 1.711 5.354 2.79.791.492.073.524-.527.126"/><path stroke="#00ADB5" stroke-linecap="round" stroke-linejoin="round" stroke-opacity=".5" d="M193.202 121.876c1.423-1.692 2.85-3.295 4.146-5.029.368-.492 2.61-3.235 1.641-1.832M194.697 124.846c1.851-1.637 4.519-3.819 5.117-6.265.176-.719.557-1.438 1.116-1.934.567-.502 1.16-.728.313.118M193.212 124.791c1.974-2.127 3.662-3.556 4.777-6.175.29-.681.622-1.244 1.097-1.78.504-.567 1.227-1.098.254-.083M200.547 125.838c.909.576 1.821 1.11 2.766 1.59.39.198-.093-.185-.259-.248M202.319 122.99c.061.052 3.635 3.115 3.001 2.432M204.442 121.88c.788.758 3.203 2.977 2.353 2.288"/><path stroke="#00ADB5" stroke-linecap="round" stroke-linejoin="round" stroke-opacity=".5" d="M199.491 127.047c1.307-1.216 4.172-3.627 4.874-5.497.277-.737 1.544-1.684.352-.671"/><path stroke="#00ADB5" stroke-linecap="round" stroke-linejoin="round" stroke-opacity=".5" d="M199.656 127.41c.124.1 2.623 2.791 3.156 1.486.272-.666.626-1.534 1.293-1.901 1.171-.644 1.387-2.673 2.585-3.217 1.36-.618 1.233-1.653-.033-2.02-.498-.145-.105-1.125-.622-1.048-.473.071-.723-.104-1.252-.007M192.113 122.371c.857 1.638 1.019 2.231 2.402 2.914.373.185.861-.071 1.144.073.56.284 1.668.29 2.087-.226.841-1.039 1.151-1.709 2.439-2.341.814-.398 1.468-1.339 1.844-2.118.413-.857 1.158-1.502 1.595-2.362.186-.366-1.315-1.309-1.329-1.943-.003-.18-1.785-.185-2.082-.335-.359-.183-.524-.44-.696-.819-.252-.555-.698.134-1.375.186M162.434 143.147c2.024.769 3.79 1.761 5.612 2.859 1.583.954 3.371 1.461 4.943 2.385 1.119.658 2.281 2.16 3.107 3.146.275.329.481.636.676 1.007.448.85-.018-1.205-.065-1.43M181.982 127.701c.562.59 2.835 3.844 2.386 1.398M186.661 353.572c.241 1.239.853 2.044 1.328 3.172.323.767.927 1.362 1.264 2.115.363.813.908 1.769 1.414 2.493.435.62.719 1.208 1.268 1.757.968.968 1.701 2.123 2.675 3.078 1.415 1.388 3.811 3.199 5.872 3.085.662-.037 1.395.168 2.045.07.557-.084 1.234-.112 1.792-.016.917.159 1.913-.001 2.79.189.474.103.99-.047 1.469.042.622.115 1.351.144 1.984.144 2.074 0 4.143-.013 6.212-.275 1.121-.143 2.231.229 3.341.032 1.041-.186 2.428.006 3.408-.423a11.252 11.252 0 0 0 3.331-2.285c.467-.466.82-1.023 1.136-1.6.415-.757.646-1.574 1.063-2.329 1.453-2.635 2.282-5.568 3.459-8.314.277-.648.733-1.172 1.066-1.77.084-.151.122-.344.259-.49.513-.543-.47-.601-.922-.806"/><path stroke="#00ADB5" stroke-linecap="round" stroke-linejoin="round" stroke-opacity=".5" d="M186.43 353.687c1.03-1.346 1.903-2.336 3.399-3.097 1.252-.638 2.551-1.395 3.683-2.228 1.739-1.278 4.133-1.848 6.25-2.233 2.305-.419 4.573-.909 6.919-.909.725 0 1.443.218 2.169.23.869.015 1.74.042 2.605.116 1.328.113 2.69.086 4.019.115 1.855.04 3.631 1 5.485 1.149 1.104.088 2.39.253 3.463.553.402.113.86.189 1.235.371.467.227.794.611 1.223.877 1.383.861 2.93 1.266 4.425 1.92.459.201 1.247.544 1.754.544.699 0 .662 1.29.662 0M233.606 351.902c-.854 1.145-1.463 1.581-2.675 2.249-.952.525-2.006.897-3.072 1.092-.996.182-2.083.325-3.092.406-.839.067-1.696-.03-2.553.067-1.94.221-3.896.721-5.767 1.268-2.67.78-5.249.861-8.007 1.011a34.916 34.916 0 0 1-8.979-.679c-.995-.206-2.047-.021-3.059-.06-1.116-.044-2.209-.351-3.258-.714-.442-.153-.849-.387-1.312-.493-.542-.123-1.094-.075-1.632-.205-.75-.181-1.626-.508-2.259-.947-.276-.191-.69-.348-.906-.637-.063-.084-.144-.271-.144-.371 0-.238-.195-.178.115.029M208.838 363.595c.701-.078 1.627-.065 1.337-.966-.093-.29-.327-.321-.576-.404-.741-.247-2.067.232-2.346 1.005-.499 1.388.447 2.888 1.933 2.407.405-.131 1.122-.417 1.38-.784.308-.441-.155-.311-.461-.74"/><path stroke="#00ADB5" stroke-linecap="round" stroke-linejoin="round" stroke-opacity=".5" d="M206.706 362.097c1.118-.448 1.689-.633 2.82-.633.455 0 .683-.032 1.084.23.664.434.892 1.258.823 1.984a9.135 9.135 0 0 1-.477 2.035c-.16.433-.557.508-.963.589-.371.074-1.18-.133-1.472.029-.31.172-1.258.23-1.498-.09-.22-.294-.457-.42-.618-.777-.153-.341-.222-.666-.345-1.005-.169-.465-.473-1.736.157-2.016.369-.164.527-.262.95-.262.12 0 .223.089.346.089.177 0-.342-.115-.519-.115M208.722 357.489c.813-1.05 1.554-2.134 2.394-3.155.451-.549 1.011-1.021 1.498-1.546 1.392-1.503 2.81-3.149 3.872-4.906 1.045-1.73 2.472-3.615 4.022-4.915.819-.687 1.551-1.445 2.263-2.237.691-.768 1.009-1.841 1.664-2.653.507-.628 3.825-4.903 4.403-2.304.227 1.022-.769 1.736-1.395 2.362-.71.71-1.424 1.612-2.029 2.419-.583.778-1.293 1.462-1.859 2.247-.771 1.067-2.174 1.831-2.736 3.04-.464.997-1.234 1.799-1.812 2.723-.8 1.281-1.738 2.351-2.681 3.523-.748.929-1.919 1.693-2.448 2.752-.443.885-1.227 1.258-1.943 1.831-.311.249-.69.388-.966.733-.092.115-.257.247-.343.118-.049-.073-.236.092-.201.173.123.287-.176-.689-.205-.781"/><path stroke="#00ADB5" stroke-linecap="round" stroke-linejoin="round" stroke-opacity=".5" d="M208.261 357.777c.221.112 1.613 1.169 1.613.317 0-.258.332-.688.448-.95.089-.199-.707-.009-.825.144-.155.198-.455.36.032.374.374.011.666-.15.95-.371.082-.064 1.181.11.202.083-.521-.015-1.027 0-1.527 0-.432 0 .444-.115.57-.115.101 0-.73.494-.874.333-.035-.04-.095-.148.045-.218M189.944 353.515c.065.034 2.123 1.112 2.131.979.01-.161-.105-.302-.025-.461.348-.697.799-.362 1.398-.093.468.211-.242-2.12 1.168-1.136.729.509.923.428.803-.425-.09-.646.133-.648.688-.58.378.047.649.129.864-.23.262-.436.557-.684 1.092-.496.443.156.837.595 1.142.035.134-.246.021-.983.445-.841.266.088.616.435.918.326.23-.083.406-.794.666-.682.271.118.547.632.89.509.165-.059.471-.599.147-.534M198.066 352.478c.714.581 3.388 3.684 4.173 1.366.141-.415.163-1.237.557-.557.324.561.813.95 1.344.42.352-.352.508-.949 1.011-1.133.462-.169.8.699 1.184.192.31-.409.16-1.112-.294-1.357-.149-.081-.191.197-.256.262M204.229 348.907c1.113-.192 2.514-.581 3.36.416.393.461.355 1.051.096 1.574-.189.382-.698.573-1.024.198-.266-.307.284-.814.48-1.001.675-.643 1.674.386 1.885 1.085.177.583-1.418 1.935-1.225 1.356M222.95 350.865c.33-.114 2.456-.798 2.048.333-.209.58-1.011.891-1.536 1.081-.249.09-.891.075-.474-.288.361-.313.87-.461 1.344-.422 1.849.15-.736 2.274-1.267 2.567-1.031.568-2.434 1.167-3.514.473"/><path stroke="#00ADB5" stroke-linecap="round" stroke-linejoin="round" stroke-opacity=".5" d="M211.602 347.466c.439.714.966 1.43 1.341 2.18.129.258-.429-.403-.56-.659-.035-.068-.275-.825-.298-.82-.28.063-.346 1.347-.422 1.584-.359 1.122-1.246.692-2.115.608-1.053-.101-1.524.937-2.106 1.6-.466.531-.649.694-.333 1.325.256.511.362 1.007 0 1.469-.282.361-.635.589-.976.887-.312.272.136.227.077.064-.16-.448-1.146-.355-1.469-.333-1.199.079-2.42-.222-3.597-.147-.625.039-1.214.388-1.833.48-.63.093.202.639.438.796.406.271-.794-.575-1.235-.784-.74-.35-1.422-.62-1.805-1.395-.384-.776-.721-1.305-1.37-1.875-.223-.197-.25-.495-.141-.762.253-.617.814-1.119 1.37-1.453"/><path stroke="#00ADB5" stroke-linecap="round" stroke-linejoin="round" stroke-opacity=".5" d="M211.487 349.771c-1.444-1.008-2.635-1.442-4.333-1.671-.597-.08-1.233-.493-1.622-.95-.346-.406-.15-.298-.557.252-.556.753-.969.078-1.68.276-1.089.303-2.024 1.316-3.13 1.504-.303.051-.23-.455-.608-.237-.637.367-1.124.715-1.869.832-.45.071-1.304.367-1.235.915M221.279 349.771c1.394.134 2.805.117 4.193.265.488.052.738.25 1.081.57.31.288.794.968 1.239 1.005.641.053.972-.213 1.571-.4.36-.113 1.51 0 1.133 0M220.243 351.326c-1.498.987-2.298 2.484-3.901 3.382-.318.178-1.289.523-1.216 1.108.053.423 3.298-.902 3.792-1.149M225.83 352.708c.814.606 1.517 1.473 2.535 1.165.275-.083.851-.116 1.036-.301M427.132 327.597c-4.207.807-7.265 2.022-9.931 5.45-1.69 2.172-1.319 5.591-.212 7.894 1.824 3.795 6.309 5.938 10.355 6.124 4.713.216 11.265-1.169 12.231-6.79.518-3.013-2.361-5.862-3.709-8.333-1.096-2.011-2.748-4.721-5.056-5.571-.942-.347-3.129-.227-3.815.711-.306.419-.7.862-.923 1.332-.181.382.013-.97-.03-1.362"/><path stroke="#00ADB5" stroke-linecap="round" stroke-linejoin="round" stroke-opacity=".5" d="M428.903 337.951c-1.135.584-2.977.97-1.983 2.248.226.292.549.276.825 0 .235-.235 1.422-1.471.545-1.763-1.788-.596-1.134 2.971.143 1.393.687-.848-.274-1.683-1.135-1.166-1.026.615-.214 1.69.591.757.606-.704.122-1.243-.538-.583-.591.591.009 1.533.59.734.596-.819-.083-1.513-.802-.795-.832.832.069.745.659.197.594-.552-.46-.471-.803-.038-.795 1.006.451.863.651 0 .295-1.267-1.012 1.645-.378-.575"/><path stroke="#00ADB5" stroke-linecap="round" stroke-linejoin="round" stroke-opacity=".5" d="M424.271 333.728c1.21 1.597 2.45 3.111 3.466 4.708.282.442.057.886.212.878.573-.032 1.161-.136 1.771-.136 1.398 0 2.498-.682 3.845-.682 1.631 0 4.028-.423 1.332-1.771M422.908 327.461c-.255-1.288-1.498-4.411.817-4.08.831.119 1.389.978 1.878 1.521 1.271 1.413 1.135 3.119-.924 3.24-.539.032-1.299 1.101-1.907.341-.689-.862.014-.804.136-1.84.08-.677-.363-.621-.553-1.287-.145-.51.157-1.069.28-1.438"/><path stroke="#00ADB5" stroke-linecap="round" stroke-linejoin="round" stroke-opacity=".5" d="M423.726 325.962c-.013.325-.514 3.258.552 2.778.357-.161.666-.394.81-.765.14-.358-.009-.573-.167-.923-.406-.903-1.585-2.307-1.226-.273.227 1.284 1.66.984 1.771-.242.086-.936-1.095-2.19-1.846-1.12-.532.757.415 2.425.968 1.256.282-.593-.391-2.102-1.105-1.362-.732.758.368 2.358 1.09 1.711.714-.64.229-2.592-.545-1.847-.707.681.354 2.037.893.999.602-1.158-.723-2.031-1.135-.818-.368 1.084.779 2.248 1.045.772.202-1.123-1.862-1.72-1.862-.378 0 1.237 1.105 1.11 1.105-.015 0-1.173-1.181-.909-.689.076.492.984 1.152-.763.598-1.317-.647-.647-1.504.353-.742.976.519.425 1.229-1.338.356-1.665-.754-.283-.337 1.257-.076.908.405-.54-.216-.902.212-.795.377.095 1.293.296 1.552.629.203.261 1.029 1.718 1.029 2.096 0 1.157-1.77 1.781-2.785 1.491-.729-.208-.945.307-.689.137.62-.414.749-1.492.749-1.083M423.589 346.943c-.701 1.489-1.324 2.984-2.149 4.391-.186.316-.535.963-.576 1.332-.11.994.888-2.371 1.09-2.861M437.35 344.082c1.725 2.179 3.628 3.733 4.973 6.124.132.235.362.422.545.605.612.612-1.136-1.306-1.703-1.96"/><path stroke="#00ADB5" stroke-linecap="round" stroke-linejoin="round" stroke-opacity=".5" stroke-width="2" d="M323.065 217.051c1.079 4.072 5.245 19.209 6.242 24.74 2.744 15.228-1.562-5.551-1.572 1.175"/><path stroke="#00ADB5" stroke-linecap="round" stroke-linejoin="round" stroke-opacity=".5" stroke-width="2" d="M315.754 223.634c-.368-6.196-1.758-14.796 6.93-13.911 4.088.417 8.59 2.843 11.138 6.089 3.938 5.016 1.861 12.792-2.394 16.784-2.265 2.124-4.462 3.189-7.425 3.992-5.021 1.361-1.059-5.612-.25-7.524M338.352 231.207c8.633-.462 16.579-2.161 19.668 7.201 1.794 5.441 3.98 12.052 2.484 17.786-1.352 5.181-4.264 8.42-9.588 6.213-7.608-3.154-7.598-9.092-3.457-15.014 1.525-2.18 7.364-6.546 7.368-9.095"/><path stroke="#00ADB5" stroke-linecap="round" stroke-linejoin="round" stroke-opacity=".5" stroke-width="2" d="M353.912 221.104c-.294 2.271-.299 18.34-4.648 18.494-.816.029-1.5.453-2.213.808-2.738 1.363-1.072.136-.05-1.283 2.315-3.214 7.005-2.026 9.352-6.292 2.55-4.632 3.724-6.91.069-10.493-2.561-2.512-1.436-6.783-3.453-.765M366.653 206.522c3.337 7.511 6.386 17.293 11.739 23.832 1.414 1.728 2.208.224 2.186-1.122-.027-1.7-.506-3.416-.999-5.026"/><path stroke="#00ADB5" stroke-linecap="round" stroke-linejoin="round" stroke-opacity=".5" stroke-width="2" d="M356.966 226.055c5.294-2.083 18.292-4.191 20.507-10.802"/><path stroke="#00ADB5" stroke-linecap="round" stroke-linejoin="round" stroke-opacity=".5" stroke-width="2" d="M373.247 206.768c22.945 40.134.591 11.926 12.253 4.585 7.08-4.455 7.67 16.544 9.632 7.461M393.74 205.387c.832 2.489 3.628 18.92 9.449 15.167 2.603-1.679 5.635-4.879 6.136-8.025.539-3.375-1.57-11.95-6.341-11.027-2.178.422-5.82.523-7.24 2.593-1.373 2-2.24 6.684-.592 1.765M409.997 201.409c6.507-4.178 14.155-5.549 15.145 4.289.124 1.235.147 2.79.714 3.927.656 1.318-.693-3.222-1.97-3.955"/><path stroke="#00ADB5" stroke-linecap="round" stroke-linejoin="round" stroke-opacity=".5" stroke-width="2" d="M409.52 205.176c.294 5.143-.441 12.11 1.962 16.935.082.164.653 1.423.365.733-.569-1.365-.805-2.291-1.878-3.771M244.833 251.734c-.901 8.359.67 34.095-13.528 32.493-2.96-.333-5.648-.828-7.054-3.617-1.473-2.92-2.691-5.461-2.837-8.778-.18-4.074 1.442-5.997 4.736-7.836 1.155-.644-1.327 1.966-1.547 2.219-1.448 1.663 3.464-.364 5.342-.78"/><path stroke="#00ADB5" stroke-linecap="round" stroke-linejoin="round" stroke-opacity=".5" stroke-width="2" d="M263.06 255.75c-7.181.672-17.317 2.033-18.476 11.017-.628 4.873 6.617 5.465 9.761 7.125 5.403 2.851 9.503 12.151 3.442 16.244-4.214 2.846-7.402 1.333-11.501 1.617-4.165.289-1.265-1.246 1.204-1.667M301.973 34.573c-.576 5.767-.926 11.594-1.637 17.347-.069.554-.614 2.74.031.972.471-1.291.319-2.638 1.075-3.863 1.043-1.687 5.752-8.114 7.964-7.464 4.433 1.303-.041 9.526-1.31 11.882-.438.813-1.631 2.576-1.013 3.487.823 1.215 2.346-3.275 2.411-3.412M319.482 38.36c-.526 2.577-4.939 15.295-.687 17.402 1.2.594 3.855-.528 4.68-1.495.859-1.008.41-2.55.317-3.72"/><path stroke="#00ADB5" stroke-linecap="round" stroke-linejoin="round" stroke-opacity=".5" stroke-width="2" d="M310.733 38.638c4.665 1.388 9.463 2.311 14.099 3.743 1.094.338 1.504.49 2.093 1.467.916 1.518-1.518.131-1.938-.329M331.831 47.653c-1.071 3.233-2.077 6.506-3.3 9.687-.242.633-.279.864-.41.381-.126-.465-.249-.74-.042-1.231 1.098-2.612 3.661-6.366 6.079-7.825 2.61-1.575 1.186 3.717.835 4.788-.394 1.203-1.455 4.5-.248 1.31.717-1.9 2.365-6.618 5.143-5.932 1.682.416 1.294 2.69.997 3.894l-1.644 6.646c-.804 3.252-.37 1.495.218-.88M352.569 40.575c-1.676 6.028-3.732 12.038-5.176 18.13-.169.713-.539 3.358.599 3.673 1.08.3 5.349-2.265 4.306-3.154M62.427 286.46c-3.963 7.529-7.913 15.065-11.888 22.588-1.132 2.145-3.368 8.705-3.645 6.296-.375-3.267 1.621-7.84 2.468-10.901 1.195-4.321 3.63-12.952 9.694-12.921 4.578.025 9.725 6.738 10.435 10.927.501 2.957 1.959-.383 3.937-1.275M74.712 310.581c2.663 6.194 6.59 16.665 14.674 10.904 3.715-2.647 1.87-7.177-1.798-8.616-8.987-3.526-20.312 6.32-22.553 14.413-2.241 8.092 6.605 10.573 12.69 11.372 3.367.442 2.612-2.436 5.51-3.438"/><path stroke="#00ADB5" stroke-linecap="round" stroke-linejoin="round" stroke-opacity=".5" stroke-width="2" d="M97.095 331.997c-6.982-2.915-16.23-5.514-20.165 3.408-1.897 4.3 6.59 4.805 9.108 4.686 4.808-.226 15.514-11.356 11.907-8.169-3.166 2.797-6.37 6.098-7.67 10.228-.841 2.668.124 8.561 3.217 4.491M124.244 337.579c-10.133.972-22.142 1.481-25.737 12.866-1.767 5.596 2.379 9.488 7.375 11.13 3.491 1.148 7.05-1.344 9.168-3.872M133.448 339.123c-.556.676-25.517 27.881-13.619 28.091 3.295.059 6.676-1.858 8.944-4.013"/><path stroke="#00ADB5" stroke-linecap="round" stroke-linejoin="round" stroke-opacity=".5" stroke-width="2" d="M112.305 344.073c4.793 3.305 9.518 6.805 14.775 9.359 1.365.664 3.64.98 4.58 2.356.528.773-.302-1.063-.394-1.33M58.848 126.255c4.022 6.878 16.794 26.944 11.61 20.895-3.315-3.867-5.833-8.999-7.934-13.574-2.205-4.8-4.276-13.365 4.127-12.931 7.213.374 10.092 7.739 11.36 13.776.56 2.663.703 4.732 1.898 7.154 1.221 2.477 1.289-7.066 1.753-9.542M84.832 112.267c.225 1.04 3.701 24.825 8.747 20.251 2.125-1.926 2.592-6.674 2.865-9.275.852-8.129-2.582-9.133-8.289-10.853-2.722-.821-3.28-.784-4.028 2.019-1.535 5.755.885 4.138 3.986.938M106.773 105.557c-2.803 4.725-6.378 10.283-4.406 16.07.818 2.401 2.721 1.766 4.054.415 2.103-2.133 3.2-5.638 3.083-8.567-.224-5.614-3.741-10.418-7.432-14.407-.511-.553-5.172-4.395-4.26-1.097 1.64 5.925 6.203 11.624 9.382 16.774 5.24 8.487 6.847 5.191 9.201-2.776M116.893 107.026c1.74 1.623 15.47 11.43 15.896 2.731.038-.789-.968-1.036-1.299-1.708-.855-1.733-2.271-2.876-3.041-3.785"/><path stroke="#00ADB5" stroke-linecap="round" stroke-linejoin="round" stroke-opacity=".5" stroke-width="2" d="M118.038 112.921c-5.436-7.139-13.03-14.562-5.246-21.619 3.28-2.974 10.086-.622 9.908 4.346-.083 2.314-.571 8.037-3.895 8.641-1.757.319-2.567-.831-.942-2.439M130.448 83.313c3.515 2.236 28.56 17.037 15.442 23.506-2.045 1.009-3.844-1.341-4.931-2.853-2.45-3.408 4.688-8.243 4.985-11.853M151.005 71.414c-2.046 1.67-13.78 12.048-4.553 14.054 5.097 1.108 9.914-3.97 13.788-6.505 6.24-4.084 7.558 3.774 5.843 8.21-1.05 2.716-9.817 11.605-7.418 4.538M220.261 457.65c-7.806 3.928-18.035 11.092-9.596 20.597 4.048 4.56 11.521 2.692 16.852 2.165 1.498-.148 5.631 1.293 4.506.293-2.434-2.163-4.185-2.024-4.915-5.676M243.434 455.016c0 5.755-.054 9.875 5.851 12.113 2.55.967 4.151 1.854 4.828 4.711.765 3.229-1.488 7.907-4.155 9.713-3.297 2.233-7.438 3.012-11.147 1.492-3.177-1.302.335-2.841 1.989-4.33M269.239 448.697c-1.036 4.013-5.705 14.746-1.551 18.9 1.677 1.677 4.924.746 6.992 1.229 2.058.481 3.823 2.056 5.091 3.687 2.008 2.581.097 6.493-2.223 8.309-3.6 2.817-8.742 1.58-12.932 1.58-2.288 0-.725-.162.409-1.58M260.16 398.752c4.057-1.548 11.582-4.012 15.506-6.788 4.143-2.93-.194-3.772-2.399-3.072-3.734 1.187-5.99 5.098-7.256 8.544-3.332 9.071 7.268 19.325 16.18 18.286 8.235-.961 9.384-4.993 10.62-11.177"/><path stroke="#00ADB5" stroke-linecap="round" stroke-linejoin="round" stroke-opacity=".5" stroke-width="2" d="M298.078 394.012c-.923 1.503-9.688 19.549-12.113 11.06"/><path stroke="#00ADB5" stroke-linecap="round" stroke-linejoin="round" stroke-opacity=".5" stroke-width="2" d="M281.752 394.539c3.698 4.943 12.632 22.617 21.592 22.119 1.3-.072-.424-5.075-.526-5.793M305.977 394.539c2.043 11.967 6.135 48.135 3.804 36.221-1.202-6.143-12.178-39.386-2.516-38.006 4.19.599 14.886 6.712 12.083 12.318-1.576 3.152-11.343 4.252-7.051 2.106M325.99 402.965c1.301 6.771 2.553 13.537 3.686 20.334.194 1.164-.066.205-.409-.438-2.154-4.04-5.104-11.238-5.003-15.77.095-4.294 6.002-7.222 9.099-4.126M342.843 410.865c-.137 4.956 3.458 22.307 11.995 17.262 1.223-.723 4.241-2.489 4.33-4.096.048-.857-1.511-1.053-2.106-1.053-1.565 0-1.956-1.941-2.633-3.16"/><path stroke="#00ADB5" stroke-linecap="round" stroke-linejoin="round" stroke-opacity=".5" stroke-width="2" d="M340.209 412.445c4.613-4.772 9.801-11.346 13.898-2.838 1.199 2.491.781 5.492-.205 7.987-1.594 4.031-7.301 5.621-5.793-.409M368.648 402.965c3.609 5.768 18.207 21.316 8.631 28.41-3.064 2.269-5.064 2.259-8.514 2.135-4.871-.174-2.297-1.408-.644-5.266M390.766 400.859c-1.09 1.319-15.172 14.933-6.612 16.384 3.155.535 6.055-1.376 8.953.556 5.229 3.486 3.99 8.211-.819 11.176-2.404 1.483-5.086 2.26-7.607 3.482-1.425.691.093-1.31.292-2.106"/><path stroke="#00ADB5" stroke-linecap="round" stroke-linejoin="round" stroke-opacity=".5" stroke-width="2" d="M378.654 395.066c-1.223.898-14.39 8.205-12.522 12.639 2.355 5.594 3.134-1.292 3.569-3.686"/><path stroke="#00ADB5" stroke-linecap="round" stroke-linejoin="round" stroke-opacity=".5" d="M54.971 222.793c2.346-5.53 1.385-10.349 1.385-16.081 0-1.115-.202-4.511.97-5.119 1.847-.959 3.574-1.599 5.754-1.599 1.45 0 2.906.042 4.355 0 1.449-.041 2.853-.631 4.285-.806 2.666-.327 5.439.128 8.071.128 2.09 0 4.252.271 6.263.271.357 0 1.812.17 2.046.377.718.633.513 1.648 1.078 2.202"/><path stroke="#00ADB5" stroke-linecap="round" stroke-linejoin="round" stroke-opacity=".5" d="M89.04 202.656c.09 1.632.125 3.922.797 5.517.435 1.033.088 2.409.176 3.51.169 2.112-.146 4.172-.146 6.222 0 2.749.138 5.464.138 8.199 0 2.347-2.293 1.954-4.107 1.624-1.567-.285-3.67.287-5.303.307-3.15.039-6.315.276-9.47.276-2.636 0-4.593-.766-7.02-1.686-1.296-.492-2.08-.383-3.471-.383-1.319 0-2.403-.206-3.724.207-.773.241-2.158.033-2.598-.759-.527-.949.521-1.361.521-2.138 0-.652-.082-2.518.138-.758"/><path stroke="#00ADB5" stroke-linecap="round" stroke-linejoin="round" stroke-opacity=".5" d="M70.695 206.242s.552.276 1.104.828c.551.413 1.713.207 2.69.207.513 0 1.056-.401 1.516-.606.934-.415.377.366.154.812-.248.495.035 1.415.482 1.725.739.511 1.47.07 2.192-.292.3-.15.218-.219.31-.015.126.277.104.679.104.981 0 .687-.045 1.83-.414 2.429-.485.788-.975 1.298-1.755 1.877-.77.573-1.788 1.571-2.812 1.571-2.001 0-4.125-.436-5.126-2.383-.425-.825-1.203-1.501-1.203-2.444 0-.788-.26-1.731 0-2.483.315-.912 1.103-1.778.827-1.778.14.04 1.38-.705 1.931-.429ZM72.971 205.759c.776-.287 2.548-.889 2.965-1.827.323-.726-.743-.862-1.31-.862-.688 0-1.503.95-1.686 1.551-.101.335-.198.677-.299 1.016-.048.163.017.281.05.433.026.115 1.078-.438 1.039-.596"/><path stroke="#00ADB5" stroke-opacity=".5" d="m86.908 221.273-30.538.671a5.943 5.943 0 0 0 .13 11.884h30.54a6 6 0 0 0 6-6v-.556a6 6 0 0 0-6.132-5.999Z"/><path stroke="#00ADB5" stroke-linecap="round" stroke-linejoin="round" stroke-opacity=".5" d="M63.059 221.777c.458.71.853 1.563 1.379 2.22.264.33.222.263.734.073.856-.317 1.826-.089 2.718-.089.784 0 1.695-.41 2.457-.204.882.237 1.922-.216 2.79-.237 1.047-.025 2.045.073 3.085.073.628 0 1.24-.367 1.82-.367.337 0 1.298.267 1.322-.351.012-.301.147-.593.147-.898 0-.411-.246-.233-.66-.44"/><path stroke="#00ADB5" stroke-linecap="round" stroke-linejoin="round" stroke-opacity=".5" stroke-width="2" d="M212.48 71.006c.566-.72 1.651-2.052.131-2.288-.344-.053-.666-.255-1.003-.102-1.04.47-2.006 1.508-2.006 2.742 0 1.97 2.161 2.396 3.73 2.37 2.648-.043 3.454-2.622 4.389-4.712.945-2.111 1.994-4.188 2.974-6.284 1.109-2.371 2.928-4.26 4.079-6.61.493-1.008 1.137-1.895 1.773-2.815.985-1.427 1.688-2.867 2.393-4.45.578-1.297 1.219-2.483 1.927-3.712.287-.497.179-1.258.727-.727.416.404 1.078.669 1.637.771 2.447.448 4.698.923 7.218.722a68.73 68.73 0 0 0 7.605-1.054c.853-.165.489.034.087.552-.682.878-1.265 1.808-1.918 2.697-.852 1.16-1.152 2.558-1.657 3.884-.554 1.458-1.214 2.85-1.744 4.332-1.023 2.864-2.516 5.475-4.364 7.879-1.071 1.393-2.393 3.825-4.398 3.727-3.103-.153-1.008-6.26.474-7.454.798-.643 1.671.049 1.768.912.134 1.186-.273 2.81-1.424 3.39-1.214.612-2.145.539-1.211-1.039.566-.954.902.096 1.134-.37M446.308 283.769c.566-.721 1.651-2.053.131-2.288-.344-.054-.666-.256-1.003-.103-1.04.471-2.005 1.509-2.005 2.742 0 1.97 2.16 2.396 3.729 2.371 2.648-.043 3.454-2.623 4.389-4.713.945-2.111 1.994-4.188 2.974-6.283 1.109-2.372 2.928-4.261 4.079-6.611.493-1.007 1.138-1.895 1.773-2.815.985-1.427 1.688-2.867 2.393-4.449.578-1.298 1.219-2.484 1.928-3.712.286-.497.178-1.259.726-.727.416.403 1.078.668 1.637.77 2.448.449 4.698.923 7.218.722a68.562 68.562 0 0 0 7.605-1.053c.853-.165.489.033.087.551-.682.878-1.264 1.808-1.918 2.698-.852 1.16-1.152 2.557-1.657 3.883-.554 1.458-1.214 2.85-1.743 4.332-1.024 2.864-2.517 5.476-4.365 7.879-1.071 1.393-2.393 3.826-4.398 3.727-3.103-.152-1.008-6.26.475-7.454.797-.643 1.67.049 1.768.912.133 1.186-.273 2.811-1.425 3.391-1.214.611-2.145.538-1.211-1.039.566-.955.902.096 1.134-.371"/><path stroke="#00ADB5" stroke-linecap="round" stroke-linejoin="round" stroke-opacity=".5" d="M421.306 159.664c-2.596-4.705-2.443-6.049-1.851-10.785.326-2.607.451-5.156 1.11-7.721 1.18-4.588 1.563-10.767-2.131-14.461-7.269-7.269-20.806 3.069-16.707 12.291 1.56 3.51 4.256 6.109 6.203 9.419.781 1.328 1.218 2.767 2.234 4.008.973 1.19 2.182 2.671 2.182 4.148 0 1.248-.372 2.866.511 3.969 1.219 1.524.785.74 2.59.74 1.241 0 3.071-.986 4.072-1.786.714-.572 1.098 1.081 1.098-.511 0-1.367-.44-.23.459-.23M415.562 164.029c2.457-.732 9.257-2.368 7.683-.344-1.899 2.441-2.711 1.218-5.041 1.736-1.192.264-2.353 3.942-1.034 4.02 1.885.111 3.135-2.425 5.054-2.425 1.748 0 1.622 2.299.575 3.114-1.384 1.076-2.975-.08-3.906 1.596-1.471 2.648 2.548 2.217 3.689 1.595 1.149-.627 2.242-1.606 3.088-2.17"/><path stroke="#00ADB5" stroke-linecap="round" stroke-linejoin="round" stroke-opacity=".5" d="M421.306 158.918c-.031.2-.064 1.55-.603 1.55-.291 0-.424-.176-.689-.028-.312.173-.605.581-.903.82-.263.21-1.044.184-1.194.446-.245.429-.742.664-1.206.715-.602.067-.824.369-1.465.227-.195-.044-.215-.169-.398-.169-.283 0-.406.135-.619-.102-.237-.263-.623-.386-.737-.785-.155-.543-.724-.828.118-.492M410.221 136.174c1.028.005 1.877.072 2.227 1.161.238.742.243 1.47.243 2.24 0 .749-.46 1.351-.46 2.055 0 .931.745.779 1.375 1.063.596.268 1.027.491 1.35 1.091.32.593.078 1.741.035 2.387-.037.555-.301 1.735.083 2.204.209.255 1.349.649.603.09M401.548 146.569c-.823.547-1.661 1.005-2.581 1.35-.386.145-.894.403-.807-.201M398.562 138.643c-1.458.352-2.907.747-4.352 1.136-.241.065.311-.543.332-.561M398.16 131.12c-1.51-.22-3.016-.492-4.518-.76-.692-.123-.985-.032-.594-.619M406.315 123.136c-1.193-.209-2.227-.411-3.305-.951-.505-.252-.991-.555-1.519-.759-.628-.242-.641-.168.057-.587M416.711 117.967c.174 1.219.117 1.949-.376 3.054a10.157 10.157 0 0 0-.622 1.991c-.046.221-.071.347-.221.514-.056.062.15-.678.185-.792M425.498 122.849c-.381 1.269-.924 2.487-1.25 3.759-.165.643-.062.682.217.032M429.174 131.981c-1.305 1.129-2.375 2.531-3.388 3.918-.127.174-.274.236-.415.377-.32.32.232-.403.3-.504"/><path stroke="#00ADB5" stroke-linecap="round" stroke-linejoin="round" stroke-opacity=".5" stroke-width="2" d="M136.734 247.189c1.91 8.602 4.06 17.223 5.323 25.955.706 4.878-.844-2.161-1.036-3.156-.417-2.154-.895-4.062-.895-6.265 0-4.433-.119-8.916-.448-13.354-.23-3.107-4.046-12.358.777-4.64 4.919 7.869 8.391 16.57 11.73 25.154.46 1.183 1.097 2.304 1.601 3.439.276.62-4.887-4.426-6.877-5.511"/><path stroke="#00ADB5" stroke-linecap="round" stroke-linejoin="round" stroke-opacity=".5" stroke-width="2" d="M133.766 266.267c5.512-2.2 17.665-6.348 21.198-12.53 1.48-2.59 1.192-1.393-2.968-.613"/><path stroke="#00ADB5" stroke-linecap="round" stroke-linejoin="round" stroke-opacity=".5" stroke-width="2" d="M150.301 237.438c4.253 8.42 7.334 17.386 8.502 26.733.108.866.309 1.816.919 2.426.113.113-2.04-3.918-2.638-4.994"/><path stroke="#00ADB5" stroke-linecap="round" stroke-linejoin="round" stroke-opacity=".5" stroke-width="2" d="M150.301 237.014c3.298 1.976 15.412 9.273 7.513 13.92-.693.408-1.506.784-2.002 1.437-1.05 1.381-1.176 1.786-.424-.095M161.323 232.775c1.405 9.518 3.816 19.977 3.816 29.676 0 2.141-.358-1.824-.848-2.967M171.074 249.733c2.328 6.938 3.524 11.027-3.297 13.048-2.331.691.485-2.695 1.083-3.109 2.041-1.413 4.073-5.961 1.79-8.244-.908-.908-3.082.239-3.721-.847-.943-1.602 1.169-4.636 2.449-5.418 3.681-2.249 3.218.921 1.696-.094M298.425 120.985c1.406 7.394 7.191 28.985 3.825 22.253-.362-.725-.665-1.34-.695-2.163-.113-3.045-.34-6.228-1.391-9.118-.879-2.417-.695-4.923-.695-7.495 0-.515-.876-4.57-.792-4.597.885-.295 4.536 4.141 5.196 4.906 3.338 3.868 6.713 8.313 9.098 12.846 1.228 2.333 1.598 3.169-1.333 3.535"/><path stroke="#00ADB5" stroke-linecap="round" stroke-linejoin="round" stroke-opacity=".5" stroke-width="2" d="M298.078 135.936a80.7 80.7 0 0 1 9.736-4.172M307.466 121.333c3.341 5.004 6.523 10.33 10.412 14.951.555.659 1.719 1.856 1.719.309 0-2.111-1.169-4.293-1.7-6.297a248.775 248.775 0 0 1-2.356-9.659c-.694-3.12-.205-1.955.966.387 1.94 3.879 3.982 7.413 6.683 10.856 1.82 2.319 2.009 1.028 2.009-1.005 0-3.691-1.802-6.727-3.129-10.045-1.418-3.544-1.323-8.382-2.936-11.609-.628-1.255-.715 2.722-.889 4.114M326.242 108.815c.089.409 1.384 10.532 3.671 9.388 1.002-.501 1.247-2.034 2.279-2.55 1.672-.835 3.479.645 4.134 2.087 1.733 3.812-.262 8.227-3.4 10.547-4.347 3.213-2.859-2.571-2.859-4.173"/><path stroke="#00ADB5" stroke-linecap="round" stroke-linejoin="round" stroke-opacity=".5" stroke-width="2" d="M328.329 108.12c-.626 1.71-1.764 9.648-2.106 6.568-.211-1.902.164-3.348.367-5.177.482-4.339 3.803-.849 2.434-3.13M305.14 336.508c-.116-.213-5.132-8.851-4.698-9.1.602-.344 1.725-.009 2.434-.275 2.093-.785 3.779-2.405 5.502-3.745 1.812-1.41 4.294 9.648 4.846 11.977.667 2.818 2.405 6.564-.847 8.19-2.931 1.466-6.788 1.023-9.988.952-5.221-.116-8.829-8.686-9.438-12.951-.444-3.105-4.744-13.073-.127-15.067 1.236-.534 3.336-.169 4.677-.169 1.918 0 3.593-1.143 5.544-1.143 3.104 0 4.043 3.878 1.333-.381M313.901 317.843c.541 1.972 2.282 12.919 6.856 10.116.871-.534 1.504-1.828 1.82-2.751.843-2.466 1.02-4.525-.868-6.412-1.414-1.415-4.145-4.302-6.2-4.381-5.096-.196-.6 5.512-1.227 4.571M314.663 300.321c3.762 5.949 9.439 12.491 11.723 19.342.291.874.302 1.468.847 2.286.822 1.233 1.211 3.023 1.989 1.142 1.127-2.723 3.695-5.14 5.714-7.237 2.49-2.586 2.831-1.82-1.609-1.82M340.946 298.417c-.473 1.067-7.649 15.268-.72 12.041 1.379-.642 2.785-1.641 2.603-3.28-.176-1.58-1.495-2.822-2.18-4.19-.386-.774-1.932-4.499-1.396-3.429 1.591 3.182 3.727 8.849 6.094 11.216 2.758 2.758 4.41-.14 1.693-1.693M345.136 299.94c10.602 16.818-2.814-2.052.275-5.354 2.989-3.195 6.52 2.941 7.639 4.889 1.949 3.393 3.868 12.196.847 3.132M358.468 285.466c-.18.635-5.867 16.639-1.609 15.152 1.81-.632 3.627-2.063 4.592-3.704 1.114-1.894 1.633-4.491.826-6.581-.551-1.425-1.146-2.947-1.905-4.275-1.803-3.154 3.056 6.594 4.508 9.925 2.126 4.877 7.248 21.976-4.825 18.58-5.266-1.481-.307-9.671-.826-9.671"/><path stroke="#00ADB5" stroke-linecap="round" stroke-linejoin="round" stroke-opacity=".5" d="M208.549 206.765c1.893-.52 3.507-1.044 4.838-2.542.525-.59.596-1.344.864-2.059.349-.929-.085-2.118-.383-3.01-.237-.713 1.062-1.113 1.526-1.143.797-.051 1.407.456 2.173.501.921.054 1.903.349 2.542 1.068.433.487 1.014.602 1.493 1.025.455.401.814 1.101 1.143 1.615.952 1.487 1.221 3.222 1.498 4.923.132.816.213 1.703.075 2.527-.164.984.011 1.93-.378 2.873-.268.651-.697 1.514-1.308 1.899-.627.395-1.21.537-1.37 1.356-.335 1.71.524 3.385.193 5.111-.293 1.533-2.319 1.767-3.571 2.013-.865.169-2.436.434-3.269-.019-1.552-.844-2.676-1.898-3.827-3.241-1.019-1.19-1.405-2.929-1.54-4.45-.137-1.553-.139-3.239-.104-4.809.023-1.042.327-2.089.425-3.128.081-.85.351-.918-.085.17"/><path stroke="#00ADB5" stroke-linecap="round" stroke-linejoin="round" stroke-opacity=".5" d="M219.519 199.027c.639-1.649 1.342-3.297 1.833-4.998.22-.764.273-1.574.548-2.32.319-.867.477-1.847.614-2.754.098-.65.146-1.801.741-2.211.435-.299.683-.982 1.148-1.342.598-.461 1.448-.89 1.871-1.507.416-.605.86-1.855.51-2.555-.194-.389-.167-.808-.359-1.191-.249-.498-.473-.902-.661-1.441-.165-.471-.684-1.413-.08-1.748 1.475-.819 1.578.471 2.036 1.649.236.609.272 1.352.491 1.984.15.433.416.12.619.369.306.374.321.842.553 1.247.346.606-.061 1.835-.237 2.428-.325 1.098-.66 2.092-1.143 3.146-1.243 2.716-3.269 5.003-4.658 7.635-.529 1.001-.952 2.01-1.209 3.118-.147.629-.577 1.229-.577 1.894 0 .607-.15.918.17-.043"/><path stroke="#00ADB5" stroke-linecap="round" stroke-linejoin="round" stroke-opacity=".5" d="M226.151 178.534c-1.083.166-2.264.229-3.231.713-.133.066.073-.107.17-.118 1.296-.153 2.712-1.309 3.893-1.871.878-.418 2.079-1.36 3.08-1.36.29 0-.964.807-1.106.935M225.046 180.404c1.205-.7 3.304-1.46 4.185-2.636.086-.114.149-.268.274-.34.438-.25-.336.029-.463.085M225.896 181.51c1.446-.554 4.09-1.046 4.885-2.636.115-.23-.14-.17-.293-.17M227.427 181.34c-.093 1.95-.073 3.933-1.186 5.603-.543.814-.919 1.356-1.11 2.31-.204 1.019-.428 1.87-.893 2.801-.459.918-.998 1.67-1.45 2.551-.235.457-.812.897-.7 1.446.057.277-.08.525-.17.784-.265.768-.762 1.444-1.228 2.107-.316.45-.312 1.258.104.425"/><path stroke="#00ADB5" stroke-linecap="round" stroke-linejoin="round" stroke-opacity=".5" d="M220.539 197.071c.767.167 1.934.68 2.721.68.014 0-.669-.824-.765-.935M221.049 193.585c1.085.463 2.172.922 3.25 1.403.253.112.238.129.151.042-.186-.187-.345-.389-.51-.595M222.07 191.289c1.307.406 2.612.844 3.935 1.2.148.04.355.119.212-.029-.285-.295-.613-.555-.916-.831M222.75 188.398c1.488.727 2.97 1.511 4.497 2.159.251.106.335.184.284-.015-.07-.269-.174-.524-.274-.784M224.62 186.357c.136.065 4.253 2.298 3.912 1.445M225.471 184.996c1.242.292 2.498.558 3.741.766M226.832 183.636c.567.027 1.133.055 1.7.085M215.607 209.146c-.591.235-4.23 1.14-4.252 2.145-.008.393 0 .786.047 1.176.147 1.211.99 1.845 2.022 2.424 1.313.735 2.727.758 4.158.34 1.36-.398 2.244-1.902 1.7-3.194-.113-.268.278-.322.024-.633-.247-.302-.41-.127-.808-.047"/><path stroke="#00ADB5" stroke-linecap="round" stroke-linejoin="round" stroke-opacity=".5" d="M213.821 212.292c.677-1.711 1.521-3.422 1.914-5.229.102-.474.229-.872.486-1.299.542-.904 1.02-1.869 1.342-2.873.305-.953.325-1.893.727-2.825.144-.332 1.001-1.329.633-.869M220.539 200.047c-.316 1.97-.79 3.855-1.124 5.802-.186 1.079-.492 1.981-.492 3.118 0 .812.29 1.49.104 2.305-.214.938-.407.476-.784-.17M219.689 200.047c-.592 1.23-1.871 3.252-1.871 4.805 0 .883.057 1.82-.005 2.716-.073 1.066-.905 2.447-1.403 3.364-.165.304-.38.539-.482.869-.127.412-.036.437-.321-.019"/><path stroke="#00ADB5" stroke-linecap="round" stroke-linejoin="round" stroke-opacity=".5" d="M213.566 210.507c1.448 1.036 4.005 3.15 5.783 1.322.277-.285.677-.893.831-1.256.21-.497-.47-.075-.917.019M215.267 208.976c.826-.026 2.495.197 3.297-.217.027-.014-.061.009-.085.028-.079.063-.243-.04-.321-.066M216.202 205.83c.606.16 2.799 1.094 2.891.085M217.223 203.279c.751.49 3.8 2.761 3.316.34M218.073 202.088l2.296.595M221.814 202.088c.947.892 2.836 2.966 2.892 4.526.045 1.272 0 2.502 0 3.789 0 .936.178 1.935.085 2.825-.123 1.168-1.917 1.183-1.488 2.555.143.459.018.73.42 1.059.347.283.599.613.727 1.063.301 1.05-.297 1.998-1.02 2.721-.452.452-1.039 1.361-1.573 1.658-.264.146-.803.042-1.106.042-.28 0-.847.183-1.1.298-.373.17-.849-.13-1.323.043"/><path stroke="#00ADB5" stroke-linecap="round" stroke-linejoin="round" stroke-opacity=".5" d="M208.549 207.02c.343 1.139.598 2.086 1.172 3.061.235.401.203.765.099 1.233-.121.545-.519 1.822-.208 2.381.478.86.468 1.77.468 2.722 0 .917 1.433 1.315 1.904 1.785.698.699.395 1.59 1.544 1.895.252.066.645.07.841.231.149.122.324.427.52.463.405.074.947-.007 1.313.156.306.136.529.332.808.487.307.17.728-.022 1.063.146 1.143.572.633.028-.17-.614M123.926 164.311c-2.272 2.908-12.028 14.542-3.715 17.175 2.58.817 5.937-1.062 8.718-.79 3.932.383 6.143 3.726 7.11 7.197 1.114 3.997-5.032 11.105-2.077 13.254 5.06 3.68 12.348-2.543 16.53 2.399 2.37 2.801-.122 6.871 1.346.263M238.041 119.02c2.19 2.902 7.402 9.439 9.363 13.166 1.668 3.173-.435 3.046-2.224 1.785-2.14-1.507-1.839-4.713-1.229-6.934 2.062-7.496 15.405-14.388 16.911-2.867.529 4.047-3.088 10.851-8.016 9.245-6.507-2.12-6.092-12.05-1.171-15.74 5.034-3.776 13.283.562 13.283 6.729 0 6.846-8.137 8.966-11.293 2.926-2.869-5.49 2.214-11.233 7.665-12.055 2.005-.302 7.184 2.014 3.57 3.219M348.108 171.158c-3.41 3.388-14.187 11.289-5.12 14.365 5.276 1.79 10.16-1.144 13.43-5.149 3.607-4.419 4.219-11.408-1.522-14.278-4.465-2.232-8.312-5.818-12.054-.205M464.496 217.502c-6.512 3.879-16.4 8.564-6.32 12.23 1.55.563 2.558.196 3.921-.761 5.039-3.541 5.335-4.959 5.032-10.416-.2-3.613-5.484-2.787-7.899-1.58-3.563 1.781-6.047 5.346-7.49 8.953-1.942 4.854 8.095 4.557 9.479-1.287.868-3.664-3.323-8.868-6.202-4.389-3.816 5.935 2.006 11.242 5.676 5.033 3.514-5.948-4.698-8.401-6.905-1.463-2.903 9.122 14.351-.783 8.075-3.921-3.741-1.87-10.058 10.007-3.16 7.051 8.375-3.589-.995-8.879-.995-.497 0 6.802 11.25-3.07 3.921-5.735-1.676-.609-3.33 4.746-2.136 5.94 2.076 2.076 5.685-3.301 5.5-5.237-.791-8.311-8.927 12.818.761 3.13 2.213-2.213 2.122-6.213-1.551-3.862-2.167 1.387-3.538 7.275.556 5.91 3.933-1.311 3.932-8.594-.292-6.905-2.578 1.032-3.512 4.681-6.291 4.126M407.619 271.746c-1.087 1.2-18.44 22.611-9.714 11.703 1.996-2.495 3.829-4.949 6.554-6.7 1.679-1.08 3.297-1.746 4.74-3.189 1.576-1.577-.659-1.473-1.024 1.814-.318 2.862-.075 15.359-.556 15.331-3.253-.191-5.386-3.393-8.397-4.447-1.613-.565-6.396.248-5.062-.82 3.262-2.609 13.253-10.092 10.299-7.138-2.238 2.237-6.837 10.647-5.266 7.899 1.116-1.954 4.135-8.32 3.686-7.256-.926 2.193-2.537 5.95-2.399 8.368.131 2.295 4.69-3.353 4.974-3.921 2.113-4.226-2.259 5.278-.702 3.014 1.402-2.04 6.142-7.225 2.75-2.136-.743 1.114 3.514-4.024 2.75-2.926-.222.319-2.151 3.556-1.024 2.429 4.038-4.038-1.912.16-2.663-.966M372.334 359.168c1.843-2.625 12.378-14.207 3.716-14.717-1.464-.086-4.483-.561-5.706.439-2.907 2.379-1.646 8.795 2.283 9.509 5.21.947 10.092-6.177 4.447-8.924-5.898-2.869-19.82 8.656-13.81 13.4 11.833 9.342 22.533-17.805 7.227-13.897-13.884 3.545-1.653 17.845 4.652 8.631 6.75-9.865-14.064-9.95-10.387 1.083 1.814 5.441 7.767 2.815 8.836-1.58 1.567-6.444-4.841-3.783-4.944.673-.112 4.775 7.246-3.865 2.838-3.482-3.186.277-3.501 4.652-5.998 4.652M162.732 309.664c1.063 4.825 3.159 19.424 3.159 14.482 0-3.411-2.605-6.594-3.13-10.006-.184-1.192.195-4.718-.819-5.529-.694-.555 5.864 4.549 7.607 5.529 3.18 1.789 5.46 5.131 8.221 1.58 1.326-1.704 5.226-1.94 5.764-2.37 3.899-3.119 3.542-7.775 4.447-11.849.323-1.453-.497 4.961-.497 6.846 0 2.412.435 5.606 1.082 7.871.919 3.216.551-5.861-.322-7.607-1.418-2.837-1.287-5.354-1.287-8.427 0-1.213 8.804 13.995 7.256 15.156-.647.485-9.268-1.893-11.879-1.053a44.555 44.555 0 0 0-6.436 2.633c-.584.291-1.546 1.353-1.171 1.053 1.337-1.07 5.428-3.994 3.804-3.452-2.232.744-4.423 2.903-6.437 4.096-3.796 2.249-5.024 1.935-6.612 5.793-.229.556 2.604.485 3.16.643 3.985 1.139 6.49-1.965 10.006-3.393 4.538-1.844 9.755-5.63 14.629-6.203 3.678-.433-1.915-1.723-2.107-2.107M363.908 106.908c9.925-3.182 26-6.841 34.875-14.102 1.61-1.318 4.104-2.581 3.54-5.12-2.12-9.54-6.733-11.778-15.828-10.767-5.045.56-9.888 5.214-14.571 7.11-4.821 1.95-9.645 4.515-14.043 7.314-4.452 2.832-1.873 4.236-1.873 9.128 0 2.69 1.607 6.437 4.476 6.437 1.308 0 5.057-1.053 1.346-1.053-2.912 0-7.433.441-10.035-.937-1.987-1.052 1.935-3.123 2.867-3.247 3.329-.444-3.814 2.812-4.535 3.043-1.482.474 5.349-4.703 1.551-3.482-4.117 1.323 1.993-2.226 3.277-2.867 1.449-.725.185.422.526-.176.547-.957 3.712-4.473.849-1.61-.959.96 2.164-1.634 3.218-2.486 1.987-1.604-.534.83-1.024 1.229-2.259 1.838-2.788.355-4.623 1.17-.766.34-2.633 1.471-2.633.146 0-2.285 8.065-3.327 9.538-3.394 9.021-.41 15.334-4.389 23.641-6.466 3.997-.999 8.366-2.438 12.112-4.213 2.779-1.316 8.344-5.436 11.294-4.593 1.159.331-16.724 10.736-11.586 7.344 4.25-2.807 9.123-4.778 2.75.497-5.106 4.226 3.876-.696 4.593-.41 1.288.515-7.929 5.78-.907 2.546 2.686-1.237 4.916-1.298 4.916-4.213 0-3.957 1.082-8.647-3.95-6.817-5.807 2.111-10.468 6.625-16.472 8.397-4.139 1.221-8.172 2.763-12.23 4.213-4.709 1.681-13.232 3.562-16.589 7.665-1.789 2.187-4.976 10.71 1.609 7.022 6.041-3.383 7.002-10.227 10.24-15.623 1.609-2.68-2.802 5.66-3.452 8.718-.747 3.517 2.562 7.564 6.349 6.905 4.154-.722 8.523-6.459 10.006-9.947 7.127-16.77-5.8-.505-2.136 3.16 3.889 3.888 9.815-6.414 10.591-8.954.935-3.06 1.485-6.832 2.604-9.742 1.452-3.776-7.818.476-8.689.907-4.822 2.383-8.189 5.562-11.469 9.772-1.188 1.524-5.954 8.697-2.692 10.328 4.372 2.185 9.738-4.608 9.86-8.134.412-11.943-9.422-5.822-15.36-1.141-3.67 2.892-.482 8.674.175 8.017M230.668 392.346c-.229.183-8.894 7.657-8.894 5.53 0-1.246.959-2.58 1.814-3.394 1.69-1.61 8.366-2.848 6.758 1.083-1.078 2.636-5.486 6.522-6.729 1.55-.516-2.064 3.027-6.207 5.179-4.447 2.372 1.941-2.728 4.414-4.331 3.54-2.861-1.561.575-7.118 3.336-5.968 2.887 1.203-1.084 4.491-2.399 5.149-3.076 1.538-2.646-.948-4.213-2.516M87.949 391.82c3.036 5.002 8.818 10.193 2.926 14.746-1.52 1.174-10.485 5.869-9.948.409.654-6.649 10.563-6.797 11.176-12.756.607-5.894-13.468-3.673-16.676-7.666-2.01-2.501-3.631-8.044-3.16-11.235.183-1.243 3.335-3.655 3.013-1.404-.588 4.12-13.873 14.674-5.998 18.14 5.28 2.323 6.643-3.56 10.533-4.974 8.013-2.914-3.979 18.697-3.979 13.166M346.002 460.283c-2.439 5.771-7.373 23.557-7.373 17.291 0-.977.189-1.749.527-2.662 1.585-4.291 3.421-8.284 6.085-12.055 1.455-2.058 3.188-8.085 5.267-3.511.97 2.134 3.745 8.076 2.574 10.416-1.468 2.938-6.028 4.623-9.069 4.74-.793.03-9.1 1.122-6.408-1.346 3.164-2.9 6.225-11.72 11.001-12.317.737-.093 2.278.4 2.926.76 1.141.634-.249 1.779-.79 2.663-.649 1.06-5.783 8.221-5.793 7.899-.146-4.799 4.778-11.766 7.431-15.389.952-1.299-4.111 7.519-5.266 9.509-.894 1.539.272 4.811-3.745 4.008M182.744 36.865c-2.35 9.192-4.443 17.95-5.296 27.327-.085.937-.678 1.544-.088 2.282.879 1.098 3.202-5.884 4.097-7.754 2.833-5.925 6.027-8.263 6.027-15.536v-3.1c0 3.384.641 6.73.409 10.122-.175 2.564-2.636 9.483-.819 7.666 2.805-2.805.558-16.867-3.833-17.233-5.993-.5-8.882 12.49-9.567 16.53-.797 4.702 2.518 6.67 6.173 3.014 4.99-4.99 6.072-15.248 1.785-21.095-5.89-8.032-9.755 6.46-10.24 10.006-1.097 8.021 3.383 10.591 8.689 4.887 1.952-2.099 5.887-5.727 5.062-8.983-1.098-4.33-7.499-.125-8.777 1.756-1.813 2.667-1.789 9.31 1.141 11.206 2.735 1.77 5.397-5.564 5.091-7.403-1.3-7.796-15.996 4.58-8.69 9.012 6.359 3.857 10.574-13.398 2.75-11.264-2.178.594-7.353 6.465-2.867 6.465M43.184 186.957c-2.366 6.705-4.07 10.985-10.064 14.746-1.505.944-3.494 2.615-3.804 4.506-.66 4.04 5.712 8.492 9.334 7.285 7.63-2.544-3.917-10.097-5.15-12.289-2.146-3.816 5.612-10.671 9.187-8.66 2.783 1.566 4.017 7.021 2.37 9.684-2.399 3.881-7.555 4.034-11.586 3.424-3.21-.487-9.641.175-7.753 4.944 2.362 5.968 13.512 2.84 15.184-2.223 1.629-4.93-7.187-6.788-5.295-11.411 1.299-3.175 5.4-7.139 9.04-7.139 4.36 0 .006 8.145-.643 9.421-2.869 5.638-7.257 6.2-12.815 7.724-10.46 2.868.808 3.272 1.463 0M30.545 259.107c-1.118 4.209-4.423 11.394-4.096 15.974.153 2.147.74-4.241.995-6.378.486-4.071 1.042-8.669 3.218-12.23.386-.632 9.318 10.518 10.123 12.347 2.155 4.896-.543 3.964-3.92 5.559-1.878.887-14.688 5.408-14.688 4.213 0-1.252 2.415-3.797 2.985-4.857 1.781-3.315 3.693-7.477 4.447-11.176 1.61-7.901.41 8.358.41 9.596 0 .752.291 5.15-1.464 5.15-2.196 0 1.485-4.134 2.224-6.203.783-2.193 3.902-8.658 3.13-10.971-1.091-3.277-1.638 6.759-1.755 10.21-.08 2.34-1.211 6.245.614 2.458.582-1.207 2.46-6.154 2.429-5.793-.265 3.045-1.492 6.184-1.492 9.246 0 3.133 1.653-6.954 4.506-8.251.709-.323-.293 5.624-.293 6.495 0 1.585 1.521-6.091 1.521-4.506 0 .442-.63 3.113-1.111 2.282-1.97-3.401-3.452-5.504-7.49-6.729-1.84-.558-7.686-.175-5.764-.175 1.263 0 3.247-4.397 4.652-3.248 1.863 1.524-.694 6.39-1.288 8.046-.971 2.711-1.58-1.102.82-.819 2.5.294-.051 9.526 1.346 7.431.648-.972 2.61-5.768 2.545-5.208-1.275 10.836-1.01-2.962 1.082.176M291.232 115.861c6.7-.331 13.171 2.146 12.112-5.793-.524-3.934-2.729-10.366-1.58-14.22 1.221-4.091 8.712-13.318 2.312-16.208-5.367-2.424-12.381 4.43-13.371 9.07-.412 1.93-.324 7.958 2.867 7.958 2.412 0 3.952-2.368 6.057-.264 2.751 2.751 3.242 5.261 1.287 8.719-4.692 8.301-23.255-.971-13.254-10.972 1.371-1.37 6.793-7.657 9.363-5.851 3.535 2.484 3.057 8.953 1.229 12.171-1.824 3.209-8.516 6.57-11.148 2.458-1.3-2.032-.678-3.394 1.492-3.394"/><path stroke="#00ADB5" stroke-linecap="round" stroke-linejoin="round" stroke-opacity=".5" d="M347.337 165.146c.618-.25 19.884-9.761 18.988-4.535-.481 2.804-.16 5.42.234 8.221.151 1.072 2.762 9.421.146 9.421-4.874 0-9.632-2.448-14.512-1.521-2.023.384-6.052 1.77-6.202-1.463-.113-2.425-2.127-13.324 2.662-12.259 3.948.877 4.119-2.256 1.317 4.71-.398.989-3.013 8.42-2.575 8.075 4.381-3.442 6.784-10.06 10.796-14.073 2.506-2.505-1.789 7.551-2.311 8.807-2.666 6.418 4.148-5.439 4.915-6.612 3.368-5.151.811 4.07.293 5.588-1.558 4.563 3.231-3.957 5.149-5.091 6.356-3.756.351 9.216-.995 6.525M295.445 264.373c.302 7.741.167 11.964 6.729 7.08 1.862-1.385 1.071 1.893.614 2.692-.762 1.335-5.233 8.044-.731 5.471 1.14-.651 4.213-1.951 4.213.556 0 .396-1.378 5.24-.029 3.891 2.21-2.21 2.25-10.542 2.37-13.78.026-.707.335-1.529-.293-1.17-3.228 1.844-4.761 11.502-6.437 15.272-1.446 3.255-5.617-.58-8.016-2.106-4.547-2.894-1.688-.839-1.58-1.054M259.107 333.363c-.02.245-.638 15.363-.527 8.016.034-2.242-.031-4.486 0-6.729.087-6.369 1.224-3.414 3.979-.79 1.263 1.203 5.898 3.8 5.149 6.232-.22.717-7.66 2.012-8.836 2.458-.881.334-6.085 3.611-6.085 3.452 0-3.913 1.378-8.148 1.843-12.054.985-8.271 6.708 13.87 7.08 8.28.088-1.316.03-9.151.03-7.197 0 1.454 1.053 9.21 1.053 4.125v-3.453c0-.542.296 2.055.497 1.551.73-1.824-.497-5.492-.497-1.024 0 5.016-1.406 1.404-4.476 1.404-2.627 0-4.131 9.626-2.78 7.373 1.184-1.972-1.148-10.005-.117-5.88.54 2.159 1.837-.228 2.633-1.024"/></svg>