<svg xmlns="http://www.w3.org/2000/svg" width="401" height="473" fill="none"><path fill="#F5B9AB" fill-rule="evenodd" d="M290.611 94.861a22.364 22.364 0 0 1-6.891-4.002c-16.024-13.65-9.153-34.247.544-44.97 9.698-10.722 69.02-6.445 41.035 43.229l-.36.214c-3.129 9.956-.49 18.495 2.676 28.74 1.291 4.179 2.67 8.642 3.781 13.6l-29.68-2.126c-8.158-11.078-11.25-22.244-11.105-34.685Z" clip-rule="evenodd"/><path fill="#000" d="m283.72 90.86-.454.532.454-.533Zm6.891 4.001.24-.657a.7.7 0 0 1 .46.666l-.7-.009Zm-6.347-48.972.519.47-.519-.47Zm41.035 43.229.61.343a.703.703 0 0 1-.249.256l-.361-.6Zm-.36.214-.667-.21a.697.697 0 0 1 .313-.393l.354.603Zm2.676 28.74-.669.207.669-.207Zm3.781 13.6.682-.153a.7.7 0 0 1-.732.851l.05-.698Zm-29.68-2.126-.05.697a.696.696 0 0 1-.513-.283l.563-.414Zm-17.543-39.22a21.67 21.67 0 0 0 6.678 3.878l-.479 1.314a23.065 23.065 0 0 1-7.106-4.126l.907-1.065Zm.61-43.967c-4.767 5.271-8.833 12.968-9.741 20.996-.904 7.995 1.319 16.316 9.131 22.972l-.907 1.065c-8.211-6.996-10.564-15.798-9.614-24.194.946-8.365 5.164-16.326 10.094-21.778l1.037.939Zm39.907 42.415c6.949-12.335 8.407-21.728 6.688-28.708-1.714-6.96-6.626-11.673-12.765-14.579-6.148-2.91-13.479-3.98-19.875-3.654-3.195.163-6.136.674-8.562 1.463-2.439.794-4.296 1.85-5.393 3.063l-1.037-.939c1.327-1.468 3.445-2.623 5.997-3.454 2.565-.835 5.631-1.362 8.924-1.53 6.579-.335 14.148.759 20.545 3.787 6.406 3.032 11.683 8.032 13.524 15.509 1.837 7.458.216 17.227-6.827 29.729l-1.219-.687Zm-.105-.045c.12-.07.238-.14.354-.21l.721 1.198c-.12.072-.242.145-.367.218l-.708-1.206Zm2.361 29.55c-3.156-10.216-5.878-18.963-2.674-29.157l1.334.42c-3.054 9.717-.498 18.049 2.677 28.324l-1.337.413Zm3.767 13.546c-1.104-4.927-2.475-9.365-3.767-13.546l1.337-.413c1.29 4.176 2.677 8.664 3.795 13.653l-1.365.306Zm-28.947-2.977 29.68 2.127-.1 1.395-29.68-2.127.1-1.395Zm-10.455-33.979c-.144 12.301 2.907 23.316 10.968 34.262l-1.126.829c-8.254-11.208-11.389-22.525-11.241-35.107l1.399.017Z"/><path fill="#00ADB5" stroke="#000" stroke-width="1.399" d="M330.624 59.12c4.644 6.462-.358 22.42-4.049 26.412 30.583-16.97 11.221-55.256 1.785-48.274-1.538-14.155-17.78-19.15-28.853-7.178-27.76-22.418-29.221 15.782-19.422 21.591 9.798 5.81 21.686.277 27.855 3.273 6.17 2.995 9.977 21.141 11.975 11.07 1.999-10.071 4.903-14.97 10.709-6.893Z"/><path fill="#EEE" stroke="#000" stroke-width="1.399" d="m358.072 340.989-43.049-3.124 10.36-115.876s-49.946-118.359-7.071-118.359c60.581 0 80.839 93.336 80.084 118.359-.756 25.023-40.324 119-40.324 119Z"/><path fill="#F5B9AB" stroke="#000" stroke-linejoin="round" stroke-width="1.399" d="m314.697 342.877.602-5.232 43.352 1.742-.956 8.408c-1.545 13.594-15.161 22.36-28.176 18.14-9.799-3.178-15.999-12.824-14.822-23.058Z"/><path fill="#EEE" stroke="#000" stroke-width="1.399" d="M252.211 257.602c-28.003-27.151 6.797-117.086 12.473-127.789 8.263-15.252 33.066-41.785 66.168-25.901 50.057 24.02 27.183 142.868 18.185 184.066l-96.826-30.376Z"/><path fill="#00ADB5" stroke="#000" stroke-width="1.399" d="m34.154 351.857-4.512-40.792s104.769-33.954 191.116-46.694l118.558 10.241c17.809 42.084 9.026 119.426-123.06 83.869l-182.102-6.624Z"/><path fill="#00ADB5" fill-rule="evenodd" d="m161.109 280.389-18.615 57.896-39.056-1.908-17.821-108.006c-2.952-17.892 10.852-34.161 28.986-34.161h24.164l1.669-2.609 8.112 2.609c6.483.008 12.353 2.071 17.11 5.504l164.128 52.796c25.382 8.165 36.799 37.634 23.541 60.768l-25.108 43.814c-13.033 22.743-43.505 28.087-63.499 11.136l-103.611-87.839Z" clip-rule="evenodd"/><path fill="#000" d="m161.109 280.389.452-.534-.798-.676-.32.996.666.214Zm-18.615 57.896-.034.698.536.026.164-.51-.666-.214Zm-39.056-1.908-.691.113.092.558.564.027.035-.698ZM85.617 228.371l.69-.114-.69.114Zm28.986-34.161v.7-.7Zm24.164 0v.7h.383l.206-.323-.589-.377Zm1.669-2.609.215-.666-.513-.165-.291.454.589.377Zm8.112 2.609-.214.666.104.034h.109l.001-.7Zm17.11 5.504-.409.567.09.065.105.034.214-.666Zm164.128 52.796.214-.666-.214.666Zm23.541 60.768.607.348-.607-.348Zm-25.108 43.814-.607-.348.607.348Zm-63.499 11.136.452-.534-.452.534Zm-104.277-88.053-18.615 57.895 1.332.429 18.615-57.896-1.332-.428Zm-17.915 57.411-39.056-1.908-.069 1.397 39.057 1.908.068-1.397Zm-38.4-1.323-17.82-108.006-1.381.228 17.82 108.005 1.381-.227Zm-17.82-108.006c-2.883-17.466 10.592-33.347 28.295-33.347v-1.399c-18.566 0-32.699 16.655-29.676 34.974l1.38-.228Zm28.295-33.347h24.164v-1.399h-24.164v1.399Zm24.753-.323 1.67-2.609-1.179-.754-1.669 2.609 1.178.754Zm.866-2.32 8.112 2.609.428-1.332-8.111-2.609-.429 1.332Zm8.325 2.643c6.332.007 12.059 2.021 16.702 5.371l.819-1.134c-4.873-3.516-10.885-5.628-17.519-5.636l-.002 1.399Zm16.897 5.47 164.127 52.796.429-1.332-164.127-52.796-.429 1.332Zm164.127 52.796c24.959 8.028 36.186 37.006 23.149 59.755l1.214.695c13.478-23.52 1.872-53.481-23.934-61.782l-.429 1.332Zm23.149 59.755-25.108 43.813 1.214.696 25.108-43.814-1.214-.695Zm-25.108 43.813c-12.816 22.364-42.779 27.619-62.44 10.95l-.905 1.067c20.328 17.234 51.308 11.801 64.559-11.321l-1.214-.696Zm-62.44 10.95-103.611-87.839-.904 1.068 103.61 87.838.905-1.067Z"/><path fill="#EEE" stroke="#000" stroke-linejoin="round" stroke-width="1.399" d="m102.988 335.936 39.938 2.362 3.096 33.527s-35.036-1.016-56.29-7.664l14.286-7.021-1.03-21.204Z"/><rect width="97.773" height="18.332" fill="#EEE" stroke="#000" stroke-width="1.399" rx="2.009" transform="scale(1 -1) rotate(-75 -14.883 -104.106)"/><rect width="97.773" height="18.332" fill="#00ADB5" stroke="#000" stroke-width="1.399" rx="2.009" transform="matrix(-1 0 0 1 208.723 176.418)"/><path fill="#EEE" stroke="#000" stroke-linejoin="round" stroke-width="1.399" d="m29.952 311.095 4.94 40.782-29.811 8.228s-5.617-35.139-2.895-57.584l9.845 12.935 17.921-4.361Z"/><path fill="#EEE" d="m177.994 205.615 22.372-37.277 68.594 37.351c-3.145-43.107 26.442-105.143 57.511-101.364 54.505 6.628 14.35 140.976-21.355 164.658-35.706 23.681-127.122-63.368-127.122-63.368Z"/><path stroke="#000" stroke-width="1.399" d="M348.174 186.777c-8.436 35.347-26.241 71.052-43.058 82.206-35.706 23.681-127.122-63.368-127.122-63.368l22.372-37.277 68.594 37.351 23.314-58.489"/><path fill="#F5B9AB" stroke="#000" stroke-linejoin="round" stroke-width="1.399" d="m196.293 165.51 4.285 3.063-22.54 37.072-6.89-4.911c-11.141-7.942-12.208-24.101-2.207-33.438a21.64 21.64 0 0 1 27.352-1.786Z"/></svg>